<mxfile host="app.diagrams.net" modified="2021-04-26T13:07:49.035Z" agent="5.0 (Macintosh; Intel Mac OS X 10_15_7) AppleWebKit/605.1.15 (KHTML, like Gecko) Version/14.0.3 Safari/605.1.15" etag="fk6kd0UJOERMqXb3SzrH" version="14.6.6" type="github">
  <diagram id="pOW65eVnQ81ArKoVpS_H" name="Page-1">
    <mxGraphModel dx="922" dy="544" grid="1" gridSize="10" guides="1" tooltips="1" connect="1" arrows="1" fold="1" page="1" pageScale="1" pageWidth="827" pageHeight="1169" math="0" shadow="0">
      <root>
        <mxCell id="0" />
        <mxCell id="1" parent="0" />
        <mxCell id="k-NZVwcAX65v_VIuYLg0-35" style="edgeStyle=orthogonalEdgeStyle;rounded=0;orthogonalLoop=1;jettySize=auto;html=1;entryX=0.5;entryY=0;entryDx=0;entryDy=0;" edge="1" parent="1" source="k-NZVwcAX65v_VIuYLg0-20" target="k-NZVwcAX65v_VIuYLg0-22">
          <mxGeometry relative="1" as="geometry" />
        </mxCell>
        <mxCell id="k-NZVwcAX65v_VIuYLg0-20" value="定时" style="ellipse;whiteSpace=wrap;html=1;aspect=fixed;" vertex="1" parent="1">
          <mxGeometry x="360" y="100" width="60" height="60" as="geometry" />
        </mxCell>
        <mxCell id="k-NZVwcAX65v_VIuYLg0-25" value="不存在" style="edgeStyle=orthogonalEdgeStyle;rounded=0;orthogonalLoop=1;jettySize=auto;html=1;" edge="1" parent="1" source="k-NZVwcAX65v_VIuYLg0-22" target="k-NZVwcAX65v_VIuYLg0-23">
          <mxGeometry relative="1" as="geometry" />
        </mxCell>
        <mxCell id="k-NZVwcAX65v_VIuYLg0-26" style="edgeStyle=orthogonalEdgeStyle;rounded=0;orthogonalLoop=1;jettySize=auto;html=1;exitX=0.5;exitY=1;exitDx=0;exitDy=0;" edge="1" parent="1" source="k-NZVwcAX65v_VIuYLg0-22" target="k-NZVwcAX65v_VIuYLg0-24">
          <mxGeometry relative="1" as="geometry" />
        </mxCell>
        <mxCell id="k-NZVwcAX65v_VIuYLg0-27" value="value=1-初始化" style="edgeLabel;html=1;align=center;verticalAlign=middle;resizable=0;points=[];" vertex="1" connectable="0" parent="k-NZVwcAX65v_VIuYLg0-26">
          <mxGeometry x="-0.4" y="5" relative="1" as="geometry">
            <mxPoint as="offset" />
          </mxGeometry>
        </mxCell>
        <mxCell id="k-NZVwcAX65v_VIuYLg0-56" style="edgeStyle=orthogonalEdgeStyle;rounded=0;orthogonalLoop=1;jettySize=auto;html=1;entryX=1;entryY=0.5;entryDx=0;entryDy=0;" edge="1" parent="1" source="k-NZVwcAX65v_VIuYLg0-22" target="k-NZVwcAX65v_VIuYLg0-33">
          <mxGeometry relative="1" as="geometry">
            <mxPoint x="540" y="680" as="targetPoint" />
            <Array as="points">
              <mxPoint x="620" y="220" />
              <mxPoint x="620" y="658" />
            </Array>
          </mxGeometry>
        </mxCell>
        <mxCell id="k-NZVwcAX65v_VIuYLg0-59" value="value=2-处理中/3-已完成" style="edgeLabel;html=1;align=center;verticalAlign=middle;resizable=0;points=[];" vertex="1" connectable="0" parent="k-NZVwcAX65v_VIuYLg0-56">
          <mxGeometry x="-0.8228" y="1" relative="1" as="geometry">
            <mxPoint as="offset" />
          </mxGeometry>
        </mxCell>
        <mxCell id="k-NZVwcAX65v_VIuYLg0-22" value="查询redis对应的key" style="rhombus;whiteSpace=wrap;html=1;" vertex="1" parent="1">
          <mxGeometry x="340" y="180" width="100" height="80" as="geometry" />
        </mxCell>
        <mxCell id="k-NZVwcAX65v_VIuYLg0-23" value="初始化key&lt;br&gt;（value=1-待处理" style="rounded=1;whiteSpace=wrap;html=1;" vertex="1" parent="1">
          <mxGeometry x="120" y="190" width="120" height="60" as="geometry" />
        </mxCell>
        <mxCell id="k-NZVwcAX65v_VIuYLg0-29" style="edgeStyle=orthogonalEdgeStyle;rounded=0;orthogonalLoop=1;jettySize=auto;html=1;entryX=0.5;entryY=0;entryDx=0;entryDy=0;" edge="1" parent="1" source="k-NZVwcAX65v_VIuYLg0-24" target="k-NZVwcAX65v_VIuYLg0-31">
          <mxGeometry relative="1" as="geometry">
            <mxPoint x="390" y="410" as="targetPoint" />
          </mxGeometry>
        </mxCell>
        <mxCell id="k-NZVwcAX65v_VIuYLg0-30" value="通过" style="edgeLabel;html=1;align=center;verticalAlign=middle;resizable=0;points=[];" vertex="1" connectable="0" parent="k-NZVwcAX65v_VIuYLg0-29">
          <mxGeometry x="-0.05" relative="1" as="geometry">
            <mxPoint as="offset" />
          </mxGeometry>
        </mxCell>
        <mxCell id="k-NZVwcAX65v_VIuYLg0-53" style="edgeStyle=orthogonalEdgeStyle;rounded=0;orthogonalLoop=1;jettySize=auto;html=1;exitX=1;exitY=0.5;exitDx=0;exitDy=0;" edge="1" parent="1" source="k-NZVwcAX65v_VIuYLg0-24" target="k-NZVwcAX65v_VIuYLg0-52">
          <mxGeometry relative="1" as="geometry" />
        </mxCell>
        <mxCell id="k-NZVwcAX65v_VIuYLg0-54" value="未通过" style="edgeLabel;html=1;align=center;verticalAlign=middle;resizable=0;points=[];" vertex="1" connectable="0" parent="k-NZVwcAX65v_VIuYLg0-53">
          <mxGeometry x="-0.2762" y="1" relative="1" as="geometry">
            <mxPoint as="offset" />
          </mxGeometry>
        </mxCell>
        <mxCell id="k-NZVwcAX65v_VIuYLg0-24" value="校验上游数据" style="rhombus;whiteSpace=wrap;html=1;" vertex="1" parent="1">
          <mxGeometry x="340" y="290" width="100" height="80" as="geometry" />
        </mxCell>
        <mxCell id="k-NZVwcAX65v_VIuYLg0-38" value="" style="edgeStyle=orthogonalEdgeStyle;rounded=0;orthogonalLoop=1;jettySize=auto;html=1;" edge="1" parent="1" source="k-NZVwcAX65v_VIuYLg0-31" target="k-NZVwcAX65v_VIuYLg0-37">
          <mxGeometry relative="1" as="geometry" />
        </mxCell>
        <mxCell id="k-NZVwcAX65v_VIuYLg0-31" value="更新value=2-进行中" style="rounded=1;whiteSpace=wrap;html=1;" vertex="1" parent="1">
          <mxGeometry x="330" y="410" width="120" height="50" as="geometry" />
        </mxCell>
        <mxCell id="k-NZVwcAX65v_VIuYLg0-33" value="结束" style="ellipse;whiteSpace=wrap;html=1;aspect=fixed;" vertex="1" parent="1">
          <mxGeometry x="355" y="630" width="65" height="65" as="geometry" />
        </mxCell>
        <mxCell id="k-NZVwcAX65v_VIuYLg0-39" style="edgeStyle=orthogonalEdgeStyle;rounded=0;orthogonalLoop=1;jettySize=auto;html=1;entryX=0.5;entryY=0;entryDx=0;entryDy=0;" edge="1" parent="1" source="k-NZVwcAX65v_VIuYLg0-37" target="k-NZVwcAX65v_VIuYLg0-33">
          <mxGeometry relative="1" as="geometry" />
        </mxCell>
        <mxCell id="k-NZVwcAX65v_VIuYLg0-45" style="edgeStyle=orthogonalEdgeStyle;rounded=0;orthogonalLoop=1;jettySize=auto;html=1;" edge="1" parent="1" source="k-NZVwcAX65v_VIuYLg0-37" target="k-NZVwcAX65v_VIuYLg0-42">
          <mxGeometry relative="1" as="geometry" />
        </mxCell>
        <mxCell id="k-NZVwcAX65v_VIuYLg0-46" value="异常" style="edgeLabel;html=1;align=center;verticalAlign=middle;resizable=0;points=[];" vertex="1" connectable="0" parent="k-NZVwcAX65v_VIuYLg0-45">
          <mxGeometry x="0.1143" y="-4" relative="1" as="geometry">
            <mxPoint as="offset" />
          </mxGeometry>
        </mxCell>
        <mxCell id="k-NZVwcAX65v_VIuYLg0-37" value="生成报表" style="rounded=1;whiteSpace=wrap;html=1;" vertex="1" parent="1">
          <mxGeometry x="330" y="500" width="120" height="50" as="geometry" />
        </mxCell>
        <mxCell id="k-NZVwcAX65v_VIuYLg0-50" style="edgeStyle=orthogonalEdgeStyle;rounded=0;orthogonalLoop=1;jettySize=auto;html=1;entryX=0.5;entryY=0;entryDx=0;entryDy=0;" edge="1" parent="1" source="k-NZVwcAX65v_VIuYLg0-42" target="k-NZVwcAX65v_VIuYLg0-48">
          <mxGeometry relative="1" as="geometry" />
        </mxCell>
        <mxCell id="k-NZVwcAX65v_VIuYLg0-42" value="&lt;span&gt;更新value=0-已失败&lt;/span&gt;" style="rounded=1;whiteSpace=wrap;html=1;" vertex="1" parent="1">
          <mxGeometry x="137.5" y="500" width="120" height="50" as="geometry" />
        </mxCell>
        <mxCell id="k-NZVwcAX65v_VIuYLg0-51" style="edgeStyle=orthogonalEdgeStyle;rounded=0;orthogonalLoop=1;jettySize=auto;html=1;" edge="1" parent="1" source="k-NZVwcAX65v_VIuYLg0-48" target="k-NZVwcAX65v_VIuYLg0-33">
          <mxGeometry relative="1" as="geometry">
            <Array as="points">
              <mxPoint x="197.5" y="663" />
            </Array>
          </mxGeometry>
        </mxCell>
        <mxCell id="k-NZVwcAX65v_VIuYLg0-48" value="发送异常邮件" style="rounded=1;whiteSpace=wrap;html=1;" vertex="1" parent="1">
          <mxGeometry x="142.5" y="585" width="110" height="45" as="geometry" />
        </mxCell>
        <mxCell id="k-NZVwcAX65v_VIuYLg0-55" style="edgeStyle=orthogonalEdgeStyle;rounded=0;orthogonalLoop=1;jettySize=auto;html=1;entryX=1;entryY=0.5;entryDx=0;entryDy=0;" edge="1" parent="1" source="k-NZVwcAX65v_VIuYLg0-52" target="k-NZVwcAX65v_VIuYLg0-33">
          <mxGeometry relative="1" as="geometry">
            <Array as="points">
              <mxPoint x="520" y="658" />
            </Array>
          </mxGeometry>
        </mxCell>
        <mxCell id="k-NZVwcAX65v_VIuYLg0-52" value="&lt;span&gt;发送上游数据异常邮件&lt;/span&gt;" style="rounded=1;whiteSpace=wrap;html=1;" vertex="1" parent="1">
          <mxGeometry x="460" y="480" width="120" height="60" as="geometry" />
        </mxCell>
      </root>
    </mxGraphModel>
  </diagram>
</mxfile>
